<?xml version="1.0" standalone="no"?>
<!DOCTYPE svg PUBLIC "-//W3C//DTD SVG 20010904//EN"
 "http://www.w3.org/TR/2001/REC-SVG-20010904/DTD/svg10.dtd">
<svg version="1.0" xmlns="http://www.w3.org/2000/svg"
 width="386.000000pt" height="139.000000pt" viewBox="0 0 386.000000 139.000000"
 preserveAspectRatio="xMidYMid meet">

<g transform="translate(0.000000,139.000000) scale(0.100000,-0.100000)"
fill="#000000" stroke="none">
<path d="M3550 1264 c-8 -2 -204 -26 -435 -54 -231 -27 -611 -72 -845 -100
-234 -28 -726 -87 -1095 -130 -369 -44 -687 -82 -707 -86 l-38 -6 0 -384 c0
-211 4 -384 8 -384 5 0 94 11 198 25 104 14 422 52 707 85 285 33 625 73 755
90 130 16 487 59 792 95 305 35 589 69 630 75 41 5 78 10 83 10 4 0 7 173 7
385 l0 385 -22 -1 c-13 -1 -30 -3 -38 -5z m-5 -389 l0 -320 -445 -52 c-245
-29 -632 -75 -860 -103 -228 -28 -514 -62 -635 -76 -121 -14 -418 -49 -660
-79 -242 -29 -443 -51 -447 -48 -5 2 -8 146 -8 319 0 243 3 316 13 319 6 2
228 29 492 60 264 31 624 73 800 95 176 22 532 64 790 95 259 30 574 68 700
84 127 16 237 28 245 27 13 -1 15 -44 15 -321z"/>
</g>
</svg>
